<svg id="Layer_1" data-name="Layer 1" xmlns="http://www.w3.org/2000/svg" viewBox="0 0 186.23 59.2"><defs><style>.cls-1{fill:#202020;}.cls-2,.cls-3{fill:none;stroke-miterlimit:10;stroke-width:6px;}.cls-2{stroke:#9ae2d6;}.cls-3{stroke:#1aab9a;}</style></defs><path class="cls-1" d="M107.23,37.1H91.82a6.56,6.56,0,0,1-2-.31,7,7,0,0,1-2-1,5.2,5.2,0,0,1-1.5-1.87,5.88,5.88,0,0,1-.63-2.73V16a3.26,3.26,0,0,1,.16-.86,1.8,1.8,0,0,1,.47-.7,2.9,2.9,0,0,1,.71-.47,3.22,3.22,0,0,1,.87-.15h19.28v4.28H90.16V31.18a1.62,1.62,0,0,0,.48,1.25,1.67,1.67,0,0,0,1.26.47h15.41v4.2Zm-1.9-9.5H91.82V23.4h13.51Z"/><path class="cls-1" d="M134.24,30.28a6.86,6.86,0,0,1-.31,2.24,6.21,6.21,0,0,1-.87,1.79,6.61,6.61,0,0,1-1.26,1.32,5.8,5.8,0,0,1-1.49.85,5.33,5.33,0,0,1-1.49.46,9.68,9.68,0,0,1-1.5.16H111V32.91H127.4a2.43,2.43,0,0,0,2.6-2.63,4.46,4.46,0,0,0-.16-1.09,2,2,0,0,0-.55-.85,2.79,2.79,0,0,0-.79-.55,2.6,2.6,0,0,0-1.1-.15h-9.83a7.8,7.8,0,0,1-2.2-.39,6,6,0,0,1-2.21-1.16,6.79,6.79,0,0,1-1.73-2.1,6.59,6.59,0,0,1-.7-3.18,6.61,6.61,0,0,1,.7-3.18,6.62,6.62,0,0,1,3.94-3.25,7.93,7.93,0,0,1,2.2-.39H132v4.19H117.57a2.43,2.43,0,0,0-2.6,2.63,2.68,2.68,0,0,0,.71,1.94,2.55,2.55,0,0,0,1.89.7h9.75a10.82,10.82,0,0,1,1.5.16,4.74,4.74,0,0,1,1.49.54,5.61,5.61,0,0,1,1.42.93,4.82,4.82,0,0,1,1.18,1.32,7.15,7.15,0,0,1,.86,1.7A4.84,4.84,0,0,1,134.24,30.28Zm25.64-8.54a8.87,8.87,0,0,1-.39,2.56,8.16,8.16,0,0,1-.94,2,6.4,6.4,0,0,1-1.42,1.47,9.16,9.16,0,0,1-1.65,1,7.19,7.19,0,0,1-1.73.54,6.36,6.36,0,0,1-1.65.16h-1.81v7.6H146V29.5h-1.73a11.52,11.52,0,0,1-1.65-.16,10.94,10.94,0,0,1-1.73-.54,7,7,0,0,1-1.65-1,6.2,6.2,0,0,1-1.42-1.47,6.75,6.75,0,0,1-.94-2,8.53,8.53,0,0,1-.4-2.56V14h4.25v7.75a4.42,4.42,0,0,0,.24,1.48,2.6,2.6,0,0,0,.7,1.08,3,3,0,0,0,1.18.7,4.58,4.58,0,0,0,1.5.23h7.71l1.25-.23a4,4,0,0,0,1.18-.54,3.61,3.61,0,0,0,.87-1,3.77,3.77,0,0,0,.31-1.78V13.91H160v7.83Zm26.35,8.54a6.6,6.6,0,0,1-.32,2.24,6.19,6.19,0,0,1-.86,1.79,5.1,5.1,0,0,1-1.26,1.32,5.8,5.8,0,0,1-1.49.85,5.39,5.39,0,0,1-1.5.46,10.54,10.54,0,0,1-1.49.16H162.87V32.91h16.52a2.54,2.54,0,0,0,1.88-.7,2.51,2.51,0,0,0,.71-1.93,5,5,0,0,0-.15-1.09,2,2,0,0,0-.56-.85,2.74,2.74,0,0,0-.78-.55,2.63,2.63,0,0,0-1.1-.15h-9.76a7.92,7.92,0,0,1-2.2-.39,6.06,6.06,0,0,1-2.2-1.16,6.43,6.43,0,0,1-2.44-5.28,6.61,6.61,0,0,1,.71-3.18,6.48,6.48,0,0,1,1.73-2.09,6.77,6.77,0,0,1,2.2-1.16,8.05,8.05,0,0,1,2.2-.39h14.48v4.19H169.63a2.54,2.54,0,0,0-1.88.7,2.51,2.51,0,0,0-.71,1.93,2.64,2.64,0,0,0,.71,1.94,2.54,2.54,0,0,0,1.88.7h9.76a10.54,10.54,0,0,1,1.49.16,4.89,4.89,0,0,1,1.5.54,5.39,5.39,0,0,1,1.41.93,6.62,6.62,0,0,1,1.26,1.32,11.27,11.27,0,0,1,.86,1.7A6.25,6.25,0,0,1,186.23,30.28Z"/><path class="cls-1" d="M108.65,43v4.46H113V43h2.36V54H113v-4.6h-4.35V54h-2.37V43Zm11.06,3.84a6,6,0,0,0-.15.85,7.52,7.52,0,0,0,0,.82,8.11,8.11,0,0,0,0,.86c0,.28.09.55.15.82a3.43,3.43,0,0,0,.57,1.22,2.31,2.31,0,0,0,1.13.77,3.28,3.28,0,0,0,.56.14,4,4,0,0,0,.6,0,3.9,3.9,0,0,0,.59,0,3.39,3.39,0,0,0,.57-.14,2.36,2.36,0,0,0,1.13-.77,3,3,0,0,0,.56-1.22,7.39,7.39,0,0,0,.14-.82,6.11,6.11,0,0,0,.06-.86,5.66,5.66,0,0,0-.06-.82,6.83,6.83,0,0,0-.14-.83,3,3,0,0,0-.56-1.23,2.28,2.28,0,0,0-1.13-.76,2.64,2.64,0,0,0-.57-.14,3.92,3.92,0,0,0-.59,0,4,4,0,0,0-.6,0,2.55,2.55,0,0,0-.56.14,2.33,2.33,0,0,0-1.12.76,3.68,3.68,0,0,0-.58,1.23ZM117.27,46a4.74,4.74,0,0,1,1.19-2A4.59,4.59,0,0,1,120.55,43a9.31,9.31,0,0,1,1-.17,8.39,8.39,0,0,1,1-.06,7.81,7.81,0,0,1,1.08,0,5.74,5.74,0,0,1,1.05.2,4.42,4.42,0,0,1,2.06,1.07,4.55,4.55,0,0,1,1.17,2,7,7,0,0,1,.24,1.16,8.48,8.48,0,0,1,.09,1.23,9.12,9.12,0,0,1-.08,1.29,6.44,6.44,0,0,1-.25,1.19,4.48,4.48,0,0,1-1.19,2,4.43,4.43,0,0,1-2.1,1,6.92,6.92,0,0,1-1,.17,9.82,9.82,0,0,1-1.09.06,8,8,0,0,1-1-.06c-.32,0-.64-.1-1-.17a4.12,4.12,0,0,1-3.28-3.05,7.63,7.63,0,0,1-.25-1.16,10.2,10.2,0,0,1,0-2.55,5.38,5.38,0,0,1,.25-1.16ZM132.12,43v6.59a3.56,3.56,0,0,0,.5,2.08,2.42,2.42,0,0,0,2,.69,2.38,2.38,0,0,0,2-.69,3.55,3.55,0,0,0,.5-2.07V43h2.36v7c0,.13,0,.26,0,.38a5,5,0,0,1-.16,1.15,2.66,2.66,0,0,1-.48,1,3,3,0,0,1-1.31,1A6,6,0,0,1,136,54l-.65.06c-.22,0-.44,0-.65,0s-.41,0-.62,0l-.65-.06a5.91,5.91,0,0,1-1.66-.39,3.15,3.15,0,0,1-1.32-1,2.66,2.66,0,0,1-.48-1,5.56,5.56,0,0,1-.14-1.15c0-.12,0-.25,0-.38V43Zm19.23,2h-5.84a2.76,2.76,0,0,0-1.31.32,1.18,1.18,0,0,0-.51,1.13,1,1,0,0,0,.44.92,1.92,1.92,0,0,0,1.05.28h3.49l.38,0a5.08,5.08,0,0,1,1.08.18,2.13,2.13,0,0,1,.94.52,2.3,2.3,0,0,1,.57.81,3.77,3.77,0,0,1,.23,1c0,.11,0,.21,0,.31a2.71,2.71,0,0,1,0,.29,3,3,0,0,1-1.08,2.61A5.23,5.23,0,0,1,148,54h-6.31V52h5.93a3.13,3.13,0,0,0,1.35-.24c.39-.18.54-.57.47-1.19a.93.93,0,0,0-.55-.88,3.3,3.3,0,0,0-1.11-.19H145a4.78,4.78,0,0,1-2.76-.68,2.85,2.85,0,0,1-1-2.53,3,3,0,0,1,1.08-2.6,5.14,5.14,0,0,1,2.87-.71h6.19Zm7-.05a2.6,2.6,0,0,0-1.94.69,2.86,2.86,0,0,0-.72,1.89l6.55,0v1.92h-6.57a4.58,4.58,0,0,0,.13,1.12,2.19,2.19,0,0,0,.55,1,1.57,1.57,0,0,0,.84.52,5.86,5.86,0,0,0,1,.09h4V54h-4a9.43,9.43,0,0,1-1.85-.17,3.83,3.83,0,0,1-1.66-.78,4,4,0,0,1-1.32-1.82A7.42,7.42,0,0,1,153,49c0-.17,0-.33,0-.48l0-.46a5.72,5.72,0,0,1,1.44-3.83A5.38,5.38,0,0,1,158.27,43h3.93v1.91Z"/><rect class="cls-2" x="34.86" y="3" width="27.59" height="53.2"/><line class="cls-3" x1="73.81" y1="56.2" y2="56.2"/><polygon class="cls-3" points="28.65 18.38 11.71 30.94 11.71 56.2 45.16 56.2 45.16 30.66 28.65 18.38"/></svg>